# xmcd
#
# Track frame offsets: 
#        150
#        10306
#        20014
#        36475
#        55268
#        69751
#        81500
#        100987
#        116644
#        131541
#        145829
#        157873
#        170302
#        187837
#        209529
#
# Disc length: 3077 seconds
#
# Revision: 0
# Processed by: cddbd v1.5PL3 Copyright (c) Steve Scherf et al.
# Submitted via: ExactAudioCopy v0.95a4
#
DISCID=ca0c030f
DTITLE=The Wiyos - Porcupine
DYEAR=2003
DGENRE=Folk
TTITLE0=Smoke Jumper
TTITLE1=Under the Sun
TTITLE2=Blue Drag
TTITLE3=Bye Bye Baby
TTITLE4=Strawberry Wine
TTITLE5=Baby, You gotta change your mind
TTITLE6=Annie Walden
TTITLE7=Ida
TTITLE8=Two Apples
TTITLE9=Rising of the Moon
TTITLE10=Grossman's Rag
TTITLE11=Next door blues
TTITLE12=Undertow
TTITLE13=Molly/outro
TTITLE14=Tennessee Tango
EXTD=
EXTT0=df
EXTT1=
EXTT2=
EXTT3=
EXTT4=
EXTT5=
EXTT6=
EXTT7=
EXTT8=
EXTT9=
EXTT10=
EXTT11=
EXTT12=
EXTT13=
EXTT14=
PLAYORDER=
